<svg xmlns="http://www.w3.org/2000/svg" viewBox="0 0 300 300"><defs><style>.a{fill:#fff;}.b{fill:#9ef2eb;}.c{fill:#ffdb43;}.d{fill:#ffc5ff;}</style></defs><title>Design</title><polygon class="a" points="218.256 110.987 294.177 154.863 294.177 230.783 218.256 186.959 218.256 110.987"/><polygon class="a" points="180.245 89.075 218.256 110.987 218.256 148.948 180.245 127.036 180.245 89.075"/><polygon class="a" points="256.217 94.939 294.177 116.851 294.177 154.863 256.217 132.899 256.217 94.939"/><polygon class="a" points="158.487 189.737 17.551 189.737 111.783 245.803 252.565 245.803 158.487 189.737"/><path class="b" d="M86.836,112.479,78.76,82.234a7.188,7.188,0,0,1,5.041-8.8l.154-.052a7.19,7.19,0,0,1,8.8,5.041l.977,3.652,31.582,118.3L121.4,213.809l-10.133-9.618Z"/><polygon points="211.775 221.268 243.152 220.805 285.536 245.803 252.565 245.803 211.775 221.268"/><polygon class="b" points="193.155 209.746 211.775 220.805 243.152 220.393 223.966 209.746 193.155 209.746"/><polygon class="c" points="175.718 199.767 192.95 209.746 223.966 209.437 206.992 199.407 175.718 199.767"/><polygon class="d" points="158.487 189.737 175.718 199.767 206.992 199.407 190.635 189.737 158.487 189.737"/><path class="d" d="M66.621,131.305,18.939,135.06,34.37,98.334a14.414,14.414,0,0,1,25.513-2.006l10.7,17.231,39.143-2.726a3.229,3.229,0,0,1,3.446,2.983v.052a3.228,3.228,0,0,1-2.983,3.446,3.229,3.229,0,0,1,3.446,2.983v.052a3.228,3.228,0,0,1-2.983,3.446,3.229,3.229,0,0,1,3.446,2.984v.051a3.228,3.228,0,0,1-2.983,3.446l-42.847,3.035Z"/><path class="c" d="M70.53,69.838,49.081,72.719,52.939,63l-.463-.669-11.47-5.812s-3.035-1.955-2.212-4.526,2.417-3.035,2.417-3.035l6.481-3.5a4.646,4.646,0,0,1,4.115-.206l.618.309c1.8,1.183,2.057,2.829,1.8,3.395S53.4,61.917,53.4,61.917l.309.72Z"/><path class="c" d="M58.494,131.871,90.745,167l-15.02,32.919H53.093l13.22-26.644-4.27.463a4.034,4.034,0,0,1-2.469-.463c-.977-.514-2.263-1.491-2.057-2.623a10.819,10.819,0,0,0,0-1.286c.206-1.44,1.7-2.52,3.086-2.88l3.292-.926-16.46-13.734L33.444,199.921H6.7l5.556-8.024s3.086-5.5,2.88-8.024a42.844,42.844,0,0,0-1.492-6.738s-1.234-4.269.206-7.355a24.768,24.768,0,0,1,3.035-4.99s5.3-5.658,5.709-9.773c.36-4.115-1.646-9.31-1.646-9.31s-.36-4.372.978-6.738a41.645,41.645,0,0,1,2.932-4.424Z"/><path d="M9.063,216.638l4.475-16.151,21.6-.463s7.355.463,9.31,6.018a36.662,36.662,0,0,1,2.057,10.236Z"/><path d="M56.642,216.638l4.578-16.614,19.238-.1s6.429.823,9.361,5.2,2.675,7.406,2.675,7.406v4.115Z"/><polygon class="c" points="218.256 148.948 180.245 127.036 180.245 164.996 218.256 186.959 218.256 148.948"/><polygon class="d" points="218.256 72.976 180.245 51.064 180.245 89.024 218.256 110.936 218.256 72.976"/><polygon class="b" points="256.577 95.248 218.617 73.284 218.617 111.296 256.577 133.208 256.577 95.248"/><path class="a" d="M197.27,72.1l13.271,20.935s1.9,2.983.36,4.578-3.5.463-4.372-.206a29.411,29.411,0,0,1-3.086-3.96L191.972,74.673Z"/><path d="M188.269,63.871s-1.492,1.286-.36,4.012a41.611,41.611,0,0,0,4.269,6.842l4.784-2.058L193,65.62s-1.8-2.726-4.629-1.9"/><polygon points="251.587 149.256 264.241 192.052 274.734 198.121 262.08 155.326 251.587 149.256"/><path class="a" d="M49.081,72.667l21.449-2.88-2.777,7.2,2.057,6.069-4.681.309s-3.549,9.516-12.7,6.224S47.59,76.268,47.59,76.268Z"/><circle class="d" cx="94.808" cy="85.269" r="3.446"/><circle class="d" cx="96.866" cy="92.779" r="3.446"/><circle class="d" cx="98.872" cy="100.289" r="3.343"/><polygon class="d" points="81.435 92.059 84.881 105.227 67.753 109.136 60.243 97.048 81.435 92.059"/><circle cx="61.169" cy="77.811" r="1.492"/><path d="M190.841,188.965H123.047l-15.328-57.506,3.4-.257a3.982,3.982,0,0,0,3.7-4.269v-.052a4.1,4.1,0,0,0-1.851-3.137c.154-.155.308-.257.463-.412a4.068,4.068,0,0,0,.977-2.932v-.051a3.734,3.734,0,0,0-1.389-2.726,1.84,1.84,0,0,0-.514-.36,4.152,4.152,0,0,0,1.44-3.344v-.051a3.734,3.734,0,0,0-1.389-2.726,4.071,4.071,0,0,0-2.932-.978l-7.458.515-1.7-6.43a4.246,4.246,0,0,0,2.521-5.041,4.318,4.318,0,0,0-3.5-3.086,3.473,3.473,0,0,0,1.029-1.234,4.077,4.077,0,0,0,.411-3.189,4.319,4.319,0,0,0-3.5-3.087,4.249,4.249,0,0,0-2.624-7.561,2.082,2.082,0,0,0-.565.052l-.772-2.829a7.959,7.959,0,0,0-3.7-4.835,7.7,7.7,0,0,0-6.018-.772l-.155.052a7.954,7.954,0,0,0-5.606,9.721l2.417,9.053L60.5,96.019l-.051-.051a15.185,15.185,0,0,0-4.732-4.835h.154a10.077,10.077,0,0,0,9.361-6.275l.309-.721,5.2-.36-2.315-6.738c.515-1.286,2.829-6.892,2.829-6.892l.309-.72-17.694-7.3.874-12.808a4.837,4.837,0,0,0-1.286-3.7A4.906,4.906,0,0,0,49.8,44.017a5.126,5.126,0,0,0-2.314.566l-7.1,3.755a4.953,4.953,0,0,0,.1,8.8l11.574,5.813L46.407,77.039A10.109,10.109,0,0,0,49.493,88.87a15.456,15.456,0,0,0-3.086-.052A14.98,14.98,0,0,0,33.6,98.077L17.7,135.934l5.4-.411-.206.205a13.716,13.716,0,0,0-2.058,13.477l.052.154a11.925,11.925,0,0,1-2.675,12.859l-2.057,2.058a13.692,13.692,0,0,0-3.138,14.145l.412,1.234A12.044,12.044,0,0,1,12,190.611L5,200.642h7.51L7.88,217.358h39.2v-4.32A14.625,14.625,0,0,0,46.149,208l10.236,6.018-.926,3.292h6.533l49.225,29.062.2.1H288.21L191.046,189.12ZM39.463,52.813a3.4,3.4,0,0,1,1.8-3.035l7.1-3.755a3.5,3.5,0,0,1,1.6-.412,3.634,3.634,0,0,1,2.52,1.081,3.115,3.115,0,0,1,.874,2.571l-.823,12.242L41.366,55.9A3.542,3.542,0,0,1,39.463,52.813ZM53.916,63.871v-.1l13.837,5.709L50.316,71.741l3.292-8.024ZM47.847,84.24a8.585,8.585,0,0,1,0-6.584L49.6,73.387,69.45,70.815,67.444,75.6c-.514,1.286-.669,1.595-.411,1.852l1.646,4.886-4.167.257-.668,1.595c-.052.154-.155.309-.206.463a3.848,3.848,0,0,1-1.338.206A4.367,4.367,0,0,1,57.928,80.9v-.463H56.385a2.472,2.472,0,0,0,.052.617,5.962,5.962,0,0,0,5.915,5.35h.206a8.553,8.553,0,0,1-6.636,3.137,8.2,8.2,0,0,1-3.292-.668l-.154-.052A8.259,8.259,0,0,1,47.847,84.24ZM195.11,210.517h29.113l16.1,9.516H211.21Zm-2.623-1.543-14.2-8.384H207.4l14.2,8.384Zm-11.162-13.888L175.513,199l-13.323-7.87Zm-14.145-4.577h20.935l-4.938,3.343Zm16.305,4.989,16.82,3.5H178.29Zm1.749-1.183,5.4-3.652,12.448,7.355Zm-60.747,6.121-3.5,11.985-9-8.59L92.957,132.539l13.167-.925ZM67.753,134.288l23.609-1.7,15.02,56.374h-25.2l10.441-21.86L59.883,132.591l6.327-.515Zm33.691-34.72a2.65,2.65,0,0,1-1.9,3.292,3.01,3.01,0,0,1-.721.1A2.723,2.723,0,0,1,96.506,98.9a2.52,2.52,0,0,1,1.646-1.235,3.06,3.06,0,0,1,.72-.1A2.688,2.688,0,0,1,101.444,99.568Zm-2.006-7.509a2.633,2.633,0,0,1-.257,2.057,2.522,2.522,0,0,1-1.646,1.235,3.061,3.061,0,0,1-.721.1,2.7,2.7,0,0,1-.668-5.3,3.009,3.009,0,0,1,.72-.1A2.688,2.688,0,0,1,99.438,92.059Zm-2.006-7.51a2.651,2.651,0,0,1-1.9,3.292,3.061,3.061,0,0,1-.721.1,2.724,2.724,0,0,1-2.314-4.064,2.516,2.516,0,0,1,1.646-1.234,3.009,3.009,0,0,1,.72-.1A2.8,2.8,0,0,1,97.432,84.549ZM84.007,74.159l.154-.052a6.454,6.454,0,0,1,7.87,4.527l.771,2.88a4.452,4.452,0,0,0-1.646,1.595,4.081,4.081,0,0,0-.411,3.189,4.318,4.318,0,0,0,3.5,3.086A4.208,4.208,0,0,0,92.8,93.808a4.318,4.318,0,0,0,3.5,3.086,3.494,3.494,0,0,0-1.029,1.234,4.082,4.082,0,0,0-.411,3.189,4.229,4.229,0,0,0,4.063,3.138h.052l1.646,6.275-13.168.926L79.532,82.029A6.423,6.423,0,0,1,84.007,74.159Zm1.851,37.6-14.916,1.029L68.987,109.6l15.38-3.5Zm-5.04-18.774L83.9,104.609l-15.843,3.6L61.375,97.357ZM35.039,98.643a13.631,13.631,0,0,1,24.124-1.9l10.956,17.643,39.606-2.777a2.346,2.346,0,0,1,1.8.617,2.434,2.434,0,0,1,.823,1.7v.052a2.465,2.465,0,0,1-2.263,2.623l-14.968,1.029.1,1.543,14.968-1.029a2.35,2.35,0,0,1,1.8.617,2.434,2.434,0,0,1,.823,1.7v.051a2.35,2.35,0,0,1-.617,1.8,2.437,2.437,0,0,1-1.7.822l-14.968,1.029.1,1.543L110.6,124.67a2.464,2.464,0,0,1,2.623,2.263v.051a2.465,2.465,0,0,1-2.263,2.624l-42.436,3.034L52.373,109.7l-1.286.874,14.094,20.009-45.11,3.549ZM13.384,191.537a13.693,13.693,0,0,0,1.646-12.345l-.411-1.234A12.176,12.176,0,0,1,17.4,165.407l2.058-2.057a13.629,13.629,0,0,0,2.983-14.5l-.051-.154a12.044,12.044,0,0,1,1.8-11.934l1.08-1.337,32.714-2.572,31.839,34.617L74.7,199.2H54.276l13.065-27.107-5.709.926a2.87,2.87,0,0,1-2.212-.514,2.972,2.972,0,0,1-1.234-1.9v-.052a2.919,2.919,0,0,1,2.314-3.395l4.784-.874L48.258,151.108l1.9-6.687-1.491-.411L32.776,199.15H8.086ZM47.8,152.754l14.094,12.5-1.7.309a4.509,4.509,0,0,0-3.55,5.195v.051a4.627,4.627,0,0,0,1.852,2.932,4.54,4.54,0,0,0,3.344.772l2.777-.463-7.2,14.968H37.251Zm-2.057,63.113H10.092l4.218-15.174H33.342a12.4,12.4,0,0,1,12.4,12.4v2.778Zm-.772-10.39a13.807,13.807,0,0,0-10.6-6.276l2.521-8.641H56.745l-4.886,10.133h8.435L57,212.575Zm16.872-4.784H79.275a12.4,12.4,0,0,1,12.4,12.4v2.778h-34.1Zm3.343,16.717H93.265v-4.321A13.95,13.95,0,0,0,79.326,199.15H76.394l4.115-8.59h26.336l3.754,14.094L121.761,215.3l.155-.514a53.72,53.72,0,0,0,10.6,2.469,11,11,0,0,0,4.423,8.692,25.3,25.3,0,0,0,9,4.115,77.2,77.2,0,0,0,20.575,2.778,73.87,73.87,0,0,0,13.888-1.286l-.257-1.492a75.543,75.543,0,0,1-33.743-1.491,23.163,23.163,0,0,1-8.435-3.858,9.641,9.641,0,0,1-3.858-7.3,54.586,54.586,0,0,0,26.078-3.343,17.009,17.009,0,0,0,5.761-3.5,5.074,5.074,0,0,0,1.595-2.726,4.58,4.58,0,0,0-1.8-4.27,9.189,9.189,0,0,0-4.064-1.594c-6.018-1.08-12.756.309-20.009,4.115a21.92,21.92,0,0,0-5.915,4.166,11.454,11.454,0,0,0-3.035,5.4,51.3,51.3,0,0,1-10.338-2.469l3.7-12.859-2.623-9.927h34.822l92.278,54.523H111.988Zm69.079-1.44a10.119,10.119,0,0,1,2.572-4.527,20.421,20.421,0,0,1,5.555-3.857c6.944-3.652,13.322-4.99,18.98-3.961a7.44,7.44,0,0,1,3.4,1.286A3.049,3.049,0,0,1,166,207.688a3.736,3.736,0,0,1-1.183,1.9,15.554,15.554,0,0,1-5.3,3.137A53,53,0,0,1,134.26,215.97Zm119.333,29.061-39.76-23.455h29.113l39.761,23.507H253.593Z"/><polygon points="229.007 128.116 237.237 132.848 238.008 131.511 227.464 125.441 227.464 136.14 229.007 136.14 229.007 128.116"/><polygon points="229.007 173.329 227.464 173.329 227.464 183.153 237.237 188.811 238.008 187.474 229.007 182.279 229.007 173.329"/><path d="M237.905,175.952l-4.166-2.418-.772,1.338,10.6,6.121.772-1.338-5.092-2.932,4.886-10.133,14.248,8.23,5.247,17.746,12.447,7.2L262.7,154.811l-11.471-6.635Zm23.507-20.112,12.036,40.635-8.538-4.938L252.873,150.9Zm-3.7,16.82L244.8,165.2l6.635-13.785Z"/><polygon points="283.427 213.706 275.197 208.923 274.425 210.26 284.97 216.381 284.97 205.631 283.427 205.631 283.427 213.706"/><polygon points="283.427 168.442 284.97 168.442 284.97 158.618 275.197 153.011 274.425 154.349 283.427 159.492 283.427 168.442"/><path d="M256.988,94.476h0l-37.96-21.912h0l-39.5-22.838V165.459l37.96,21.912h0L295,232.121V116.44Zm-1.543.926v36.16l-26.027-15.019-10.39-6.019V74.313Zm-74.429-6.79V52.4l36.417,21.038V109.65L199.276,99.157Zm0,37.961V90.413l18.209,10.493L217.433,111.4V147.61l-30.862-17.848Zm0,38.011V128.373l4.835,2.778,31.582,18.26v36.211Zm112.389-9.31v74.172L218.977,186.5V112.325l36.417,21.037h0l13.168,7.613Zm-36.417-22.786V96.277L293.4,117.314v36.212Z"/><path d="M210.85,92.522,198.4,72.873l1.44-.617-.617-1.441-1.7.721L194.338,66.5C193,64.386,190.944,63,189.246,63a2.674,2.674,0,0,0-1.08.206h-.051a2.537,2.537,0,0,0-1.389,1.594,6.067,6.067,0,0,0,1.028,4.732l3.087,4.836-1.441.617.618,1.44,1.7-.72,12.6,19.906c1.337,2.109,3.395,3.5,5.092,3.5a2.691,2.691,0,0,0,1.08-.206h.052a2.539,2.539,0,0,0,1.389-1.595A6.38,6.38,0,0,0,210.85,92.522ZM189.04,68.655a4.79,4.79,0,0,1-.874-3.446.9.9,0,0,1,.514-.617h.052a1.48,1.48,0,0,1,.463-.1c1.028,0,2.623.977,3.806,2.777l3.086,4.835L192.281,73.7Zm21.347,28.136a.9.9,0,0,1-.515.617h-.051c-.926.36-2.881-.566-4.269-2.726L193.1,75.033l3.806-1.594,12.6,19.906A4.508,4.508,0,0,1,210.387,96.791Z"/><polygon points="151.852 83.932 153.395 83.932 153.395 75.445 161.83 75.445 161.83 73.902 153.395 73.902 153.395 65.466 151.852 65.466 151.852 73.902 143.416 73.902 143.416 75.445 151.852 75.445 151.852 83.932"/><path d="M140.484,159.338a4.475,4.475,0,1,0-4.475-4.475A4.478,4.478,0,0,0,140.484,159.338Zm0-7.458a2.93,2.93,0,0,1,2.932,2.931,2.932,2.932,0,1,1-2.932-2.931Z"/></svg>