<?xml version="1.0" encoding="utf-8"?>
<!-- Generator: Adobe Illustrator 17.1.0, SVG Export Plug-In . SVG Version: 6.00 Build 0)  -->
<!DOCTYPE svg PUBLIC "-//W3C//DTD SVG 1.1//EN" "http://www.w3.org/Graphics/SVG/1.1/DTD/svg11.dtd">
<svg version="1.1" id="corporate-identity" xmlns="http://www.w3.org/2000/svg" xmlns:xlink="http://www.w3.org/1999/xlink" x="0px"
	 y="0px" viewBox="0 0 1009.9824 1009.9702" enable-background="new 0 0 1009.9824 1009.9702" xml:space="preserve">
<g id="corporate-identity-label">
	<path fill="#F6AB38" d="M504.9824,0C226.1015,0,0,226.143,0,505c0,278.9096,226.1015,504.9702,504.9824,504.9702
		c278.8799,0,505-226.0605,505-504.9702C1009.9824,226.143,783.8623,0,504.9824,0z"/>
</g>
<g id="corporate-identity-corporate-identity">
	<g>
		<g>
			<path fill-rule="evenodd" clip-rule="evenodd" fill="#FFFFFF" d="M326.2959,265.1508
				c26.9585,1.418,48.5659,23.0137,50.0078,49.9717h-14.2896c-1.3823-19.0566-16.6255-34.3232-35.7182-35.7177V265.1508
				L326.2959,265.1508z"/>
			<path fill-rule="evenodd" clip-rule="evenodd" fill="#FFFFFF" d="M320.5996,370.8276
				c-26.9468-1.4185-48.5782-23.0376-49.9961-49.9961h14.2895c1.3824,19.0811,16.6372,34.3477,35.7066,35.7183V370.8276
				L320.5996,370.8276z"/>
			<path fill-rule="evenodd" clip-rule="evenodd" fill="#FFFFFF" d="M270.6035,315.1225
				c1.4179-26.958,23.0493-48.5537,49.9961-49.9717v14.254c-19.0694,1.3945-34.3242,16.6611-35.7066,35.7177H270.6035
				L270.6035,315.1225z"/>
			<path fill-rule="evenodd" clip-rule="evenodd" fill="#FFFFFF" d="M376.3037,320.8315
				c-1.4419,26.9585-23.0493,48.5776-50.0078,50.0195v-14.3012c19.0927-1.3706,34.3359-16.6372,35.7182-35.7183H376.3037
				L376.3037,320.8315z"/>
			<path fill-rule="evenodd" clip-rule="evenodd" fill="#FFFFFF" d="M324.8662,291.5727
				c13.4907,0.7031,24.3003,11.5249,25.0039,24.9922h-7.1514c-0.667-9.5464-8.3066-17.1621-17.8525-17.8652V291.5727
				L324.8662,291.5727z"/>
			<path fill-rule="evenodd" clip-rule="evenodd" fill="#FFFFFF" d="M322.0293,344.393
				c-13.503-0.6909-24.2891-11.5005-25.0039-24.9795h7.1386c0.6914,9.5225,8.3072,17.1739,17.8653,17.8526V344.393L322.0293,344.393
				z"/>
			<path fill-rule="evenodd" clip-rule="evenodd" fill="#FFFFFF" d="M297.0254,316.5649
				c0.727-13.4673,11.5009-24.2891,25.0039-24.9922v7.127c-9.5581,0.7031-17.1739,8.3188-17.8653,17.8652H297.0254
				L297.0254,316.5649z"/>
			<path fill-rule="evenodd" clip-rule="evenodd" fill="#FFFFFF" d="M349.8701,319.4135
				c-0.7036,13.479-11.5132,24.2886-25.0039,24.9795v-7.1269c9.5576-0.6909,17.1855-8.3301,17.8769-17.8526H349.8701
				L349.8701,319.4135z"/>
		</g>
		<path fill="#FFFFFF" d="M247.5063,736.5483c0-16.2559,0-478.0713,0-494.3154c16.0059,0,351.9614,0,367.9556,0
			c0,8.7715,0,147.4844,0,275.7871h17.1025V225.1421h-8.5693H230.4043v528.496h92.7695v-17.0898
			C282.0566,736.5483,252.0234,736.5483,247.5063,736.5483z"/>
		<path fill="#FFFFFF" d="M343.5888,538.4477v246.3682h435.9951V538.4477H343.5888z M415.0732,586.8589
			c10.1299,0.5234,18.2344,8.6279,18.7466,18.7343h-5.3394c-0.5-7.1504-6.2451-12.8945-13.4072-13.4199V586.8589z
			 M411.8906,567.0268v10.7022c-14.3135,1.0254-25.7427,12.4668-26.791,26.792h-10.7149
			C375.458,584.3081,391.666,568.0991,411.8906,567.0268z M411.8906,646.2817c-20.2246-1.0488-36.4326-17.2812-37.5059-37.4707
			h10.7149c1.0483,14.2783,12.4775,25.7432,26.791,26.7686V646.2817z M412.9394,626.4741
			c-10.1064-0.5244-18.2104-8.6524-18.7349-18.7354h5.3394c0.5127,7.1514,6.2329,12.8711,13.3955,13.3721V626.4741z
			 M412.9394,592.1733c-7.1626,0.5254-12.8828,6.2695-13.3955,13.4199h-5.3394c0.5367-10.1064,8.6285-18.2109,18.7349-18.7343
			V592.1733z M415.0732,621.1108c7.1743-0.5244,12.9072-6.2207,13.4072-13.3721h5.3394
			c-0.5122,10.0829-8.6167,18.211-18.7466,18.7354V621.1108z M416.1455,646.3051v-10.7255
			c14.3252-1.0254,25.7549-12.4903,26.792-26.7686h10.7255C452.5908,629.0005,436.3701,645.2329,416.1455,646.3051z
			 M442.9375,604.521c-1.0371-14.3252-12.4668-25.7666-26.792-26.792v-10.7022c20.2246,1.0723,36.4453,17.2813,37.5175,37.4942
			H442.9375z M734.8554,725.1782c0,3.5752-2.9433,6.5068-6.5185,6.5068H548.1728c-3.5996,0-6.5068-2.9316-6.5068-6.5068v-65.7871
			c0-3.5987,2.9072-6.5069,6.5068-6.5069h180.1641c3.5752,0,6.5185,2.9082,6.5185,6.5069V725.1782z"/>
	</g>
</g>
</svg>
