<?xml version="1.0" ?><!DOCTYPE svg  PUBLIC '-//W3C//DTD SVG 1.1//EN'  'http://www.w3.org/Graphics/SVG/1.1/DTD/svg11.dtd'><svg enable-background="new 0 0 512 512" id="Layer_1" version="1.1" viewBox="0 0 512 512" xml:space="preserve" xmlns="http://www.w3.org/2000/svg" xmlns:xlink="http://www.w3.org/1999/xlink"><g><path d="M1,1c170.7,0,341.3,0,512,0c0,170.7,0,341.3,0,512c-170.7,0-341.3,0-512,0C1,342.3,1,171.7,1,1z    M258.5,507.2c136.1,0.9,246.2-109,249.6-242.5C511.7,124.1,398.9,10.3,262.3,8.7C123.9,7.1,12.9,118.1,9.9,252.1   C6.7,392.6,120.2,507.6,258.5,507.2z" fill="#FFFFFF"/><path d="M258.5,507.2C120.2,507.6,6.7,392.6,9.9,252.1c3-134,114.1-245.1,252.4-243.4c136.6,1.6,249.4,115.4,245.9,255.9   C504.7,398.1,394.6,508,258.5,507.2z M372.4,386.6c0.7,0,1.3-0.1,2-0.1c1.5-4.7,2.9-9.4,4.4-14.1c9-28.9,18.4-57.6,26.8-86.6   c5.7-19.8,6.8-40,1.1-60.2c-4-14.1-11.2-26.6-18.7-39c-6.4-10.5-12.6-21.1-14.6-33.6c-2.9-18.6,8.5-37.3,26.4-41.4   c6.7-1.5,14-0.8,20.6-1.1c-35-42.4-106.9-82.8-191.6-70.4C158.1,50.6,105.6,88.5,68.4,149.7c9.7,0,18.3,0.1,26.8,0   c14-0.2,28-0.4,42-0.9c9.3-0.3,18.6-1.2,27.9-1.6c4.9-0.2,8.4,2.6,9,6.9c0.6,4.6-2.1,8.1-7.2,9.1c-2.4,0.5-5,0.6-7.4,0.9   c-5.4,0.6-10.8,1.1-16.8,1.7c25.1,74.6,50,148.5,74.9,222.5c0.6-0.1,1.3-0.1,1.9-0.2c0.6-1.5,1.3-2.9,1.8-4.4   c13.6-40.5,27.2-81,40.8-121.5c1.6-4.8,2.2-9.4,0.3-14.5c-9.7-25.8-19.2-51.7-28.4-77.7c-1.2-3.5-2.9-4.5-6.4-4.7   c-6.3-0.4-12.6-1.3-18.8-2.2c-3.6-0.5-5.4-3.1-5.7-6.6c-0.3-3.6,0.9-6.8,4.5-8.1c2.1-0.8,4.6-1,6.8-0.8c34.3,2.8,68.5,3,102.8,0   c8.6-0.7,12.5,1.6,12.8,7.3c0.3,5.5-3.1,8.2-11.4,9c-6.4,0.6-12.8,1.2-20,1.9C323.1,239.8,347.8,313.2,372.4,386.6z M184.8,464.8   c-0.3-1.5-0.4-2.2-0.6-2.7c-15.1-41.4-30.1-82.8-45.2-124.1c-19.7-54-39.4-108.1-59.2-162c-0.6-1.6-3.1-3.4-4.9-3.6   c-4.1-0.6-8.4,0.2-12.5-0.3c-3.8-0.5-5.2,1-6.5,4.3c-11.1,28.3-16.7,57.5-15.4,87.9c3.1,73.3,34.8,131.5,94,174.6   C149.7,449.7,166.2,458.2,184.8,464.8z M340.2,462.3c-22-60.4-43.7-119.9-65.4-179.4c-0.6,0-1.2,0-1.8,0.1   c-21.7,62.8-43.4,125.6-65.3,189C253.1,482.5,297,479.3,340.2,462.3z M373.2,445c43.6-25.7,91.9-80.1,102.3-156.6   c6.3-46-1.2-89.7-22.6-130.9c0.4,20,1.4,40.1-3.5,59.7c-4.1,16.6-9.6,32.8-15.1,49c-16.6,48.8-33.5,97.4-50.2,146.1   C380.5,422.8,377.1,433.4,373.2,445z"/><path d="M372.4,386.6c-24.6-73.4-49.3-146.8-74.1-220.7c7.2-0.7,13.6-1.3,20-1.9c8.3-0.8,11.7-3.5,11.4-9   c-0.3-5.8-4.2-8.1-12.8-7.3c-34.3,2.9-68.5,2.8-102.8,0c-2.2-0.2-4.7,0.1-6.8,0.8c-3.6,1.3-4.8,4.4-4.5,8.1   c0.3,3.5,2.1,6.1,5.7,6.6c6.3,0.9,12.5,1.8,18.8,2.2c3.4,0.2,5.1,1.3,6.4,4.7c9.3,26,18.8,51.9,28.4,77.7c1.9,5.1,1.3,9.7-0.3,14.5   c-13.6,40.5-27.2,81-40.8,121.5c-0.5,1.5-1.2,2.9-1.8,4.4c-0.6,0.1-1.3,0.1-1.9,0.2c-24.9-74-49.8-147.9-74.9-222.5   c6-0.6,11.4-1.2,16.8-1.7c2.5-0.3,5-0.4,7.4-0.9c5.1-1,7.8-4.5,7.2-9.1c-0.6-4.3-4.1-7.1-9-6.9c-9.3,0.4-18.6,1.3-27.9,1.6   c-14,0.5-28,0.7-42,0.9c-8.6,0.1-17.2,0-26.8,0c37.1-61.3,89.7-99.1,160.3-109.5c84.7-12.5,156.6,28,191.6,70.4   c-6.5,0.3-13.8-0.4-20.6,1.1c-17.9,4-29.4,22.8-26.4,41.4c2,12.5,8.2,23.1,14.6,33.6c7.6,12.4,14.8,24.9,18.7,39   c5.7,20.2,4.6,40.4-1.1,60.2c-8.4,29-17.8,57.8-26.8,86.6c-1.5,4.7-2.9,9.4-4.4,14.1C373.8,386.5,373.1,386.5,372.4,386.6z" fill="#FFFFFF"/><path d="M184.8,464.8c-18.5-6.6-35.1-15.1-50.2-26.1c-59.2-43.1-90.9-101.3-94-174.6c-1.3-30.3,4.4-59.6,15.4-87.9   c1.3-3.3,2.7-4.8,6.5-4.3c4.1,0.5,8.4-0.2,12.5,0.3c1.8,0.2,4.3,2,4.9,3.6c19.9,54,39.5,108,59.2,162   c15.1,41.4,30.1,82.8,45.2,124.1C184.4,462.6,184.4,463.3,184.8,464.8z" fill="#FFFFFF"/><path d="M340.2,462.3c-43.1,17.1-87,20.2-132.5,9.6c21.9-63.3,43.6-126.1,65.3-189c0.6,0,1.2,0,1.8-0.1   C296.4,342.3,318.1,401.8,340.2,462.3z" fill="#FFFFFF"/><path d="M373.2,445c3.9-11.6,7.3-22.2,10.9-32.7c16.7-48.7,33.6-97.4,50.2-146.1c5.5-16.2,11-32.5,15.1-49   c4.9-19.5,3.8-39.6,3.5-59.7c21.4,41.2,28.9,84.9,22.6,130.9C465.1,364.9,416.8,419.3,373.2,445z" fill="#FFFFFF"/></g></svg>